<mxfile host="app.diagrams.net" agent="Mozilla/5.0 (Windows NT 10.0; Win64; x64) AppleWebKit/537.36 (KHTML, like Gecko) Chrome/136.0.0.0 Safari/537.36" version="27.0.8">
  <diagram name="第1頁" id="557OZg35dTpulnpXvJlv">
    <mxGraphModel dx="1191" dy="617" grid="1" gridSize="10" guides="1" tooltips="1" connect="1" arrows="1" fold="1" page="1" pageScale="1" pageWidth="1169" pageHeight="827" math="0" shadow="0">
      <root>
        <mxCell id="0" />
        <mxCell id="1" parent="0" />
        <mxCell id="07gyAidKK9KNY_pC1GZg-2" value="&lt;font style=&quot;font-size: 17px;&quot; face=&quot;標楷體&quot;&gt;&lt;b style=&quot;&quot;&gt;錯誤可供性&lt;/b&gt;&lt;/font&gt;&lt;div&gt;&lt;font style=&quot;font-size: 13px;&quot; face=&quot;Times New Roman&quot;&gt;&lt;b&gt;False Affordance&lt;/b&gt;&lt;/font&gt;&lt;font style=&quot;font-size: 17px;&quot; face=&quot;標楷體&quot;&gt;&lt;b style=&quot;&quot;&gt;&lt;/b&gt;&lt;/font&gt;&lt;/div&gt;" style="ellipse;whiteSpace=wrap;html=1;" vertex="1" parent="1">
          <mxGeometry x="680" y="80" width="120" height="80" as="geometry" />
        </mxCell>
        <mxCell id="07gyAidKK9KNY_pC1GZg-3" value="&lt;font face=&quot;標楷體&quot;&gt;&lt;span style=&quot;font-size: 17px;&quot;&gt;&lt;b&gt;可感知可供性&lt;br&gt;&lt;/b&gt;&lt;/span&gt;&lt;/font&gt;&lt;div&gt;&lt;span style=&quot;background-color: transparent; font-size: 13px;&quot;&gt;&lt;font face=&quot;Times New Roman&quot;&gt;&lt;b&gt;Perceptible&lt;/b&gt;&lt;/font&gt;&lt;/span&gt;&lt;/div&gt;&lt;div&gt;&lt;span style=&quot;font-family: &amp;quot;Times New Roman&amp;quot;; font-size: 13px;&quot;&gt;&lt;b&gt;Affordance&lt;/b&gt;&lt;/span&gt;&lt;font face=&quot;標楷體&quot;&gt;&lt;span style=&quot;font-size: 17px;&quot;&gt;&lt;b&gt;&lt;/b&gt;&lt;/span&gt;&lt;/font&gt;&lt;/div&gt;" style="ellipse;whiteSpace=wrap;html=1;" vertex="1" parent="1">
          <mxGeometry x="840" y="80" width="120" height="80" as="geometry" />
        </mxCell>
        <mxCell id="07gyAidKK9KNY_pC1GZg-4" value="&lt;font face=&quot;標楷體&quot;&gt;&lt;span style=&quot;font-size: 17px;&quot;&gt;&lt;b&gt;隱藏可供性&lt;/b&gt;&lt;/span&gt;&lt;/font&gt;&lt;div&gt;&lt;font face=&quot;Times New Roman&quot;&gt;Hidden Affordance&lt;/font&gt;&lt;font face=&quot;標楷體&quot;&gt;&lt;span style=&quot;font-size: 17px;&quot;&gt;&lt;b&gt;&lt;/b&gt;&lt;/span&gt;&lt;/font&gt;&lt;/div&gt;" style="ellipse;whiteSpace=wrap;html=1;" vertex="1" parent="1">
          <mxGeometry x="840" y="200" width="120" height="80" as="geometry" />
        </mxCell>
        <mxCell id="07gyAidKK9KNY_pC1GZg-5" value="&lt;font face=&quot;標楷體&quot;&gt;&lt;span style=&quot;font-size: 17px;&quot;&gt;&lt;b&gt;正確拒絕&lt;/b&gt;&lt;/span&gt;&lt;/font&gt;&lt;div&gt;&lt;strong data-end=&quot;580&quot; data-start=&quot;559&quot;&gt;&lt;font face=&quot;Times New Roman&quot;&gt;Correct Rejection&lt;/font&gt;&lt;/strong&gt;&lt;font face=&quot;標楷體&quot;&gt;&lt;span style=&quot;font-size: 17px;&quot;&gt;&lt;b&gt;&lt;/b&gt;&lt;/span&gt;&lt;/font&gt;&lt;/div&gt;" style="ellipse;whiteSpace=wrap;html=1;" vertex="1" parent="1">
          <mxGeometry x="680" y="200" width="120" height="80" as="geometry" />
        </mxCell>
        <mxCell id="07gyAidKK9KNY_pC1GZg-6" value="&lt;font style=&quot;font-size: 18px;&quot; face=&quot;標楷體&quot;&gt;實際存在的可供性&lt;/font&gt;&lt;div style=&quot;&quot;&gt;&lt;font face=&quot;Times New Roman&quot; style=&quot;font-size: 18px;&quot;&gt;Affordance&lt;/font&gt;&lt;/div&gt;" style="text;whiteSpace=wrap;html=1;align=center;" vertex="1" parent="1">
          <mxGeometry x="750" y="330" width="150" height="40" as="geometry" />
        </mxCell>
        <mxCell id="07gyAidKK9KNY_pC1GZg-7" value="&lt;div style=&quot;&quot;&gt;&lt;font face=&quot;標楷體&quot;&gt;&lt;span style=&quot;font-size: 18px;&quot;&gt;可被感知的資訊&lt;/span&gt;&lt;/font&gt;&lt;font face=&quot;Times New Roman&quot;&gt;&lt;span style=&quot;font-size: 18px;&quot;&gt;Perceptual Information&lt;/span&gt;&lt;/font&gt;&lt;/div&gt;" style="text;whiteSpace=wrap;html=1;align=center;textDirection=vertical-lr;" vertex="1" parent="1">
          <mxGeometry x="560" y="90" width="50" height="200" as="geometry" />
        </mxCell>
        <mxCell id="07gyAidKK9KNY_pC1GZg-8" value="" style="endArrow=none;html=1;rounded=0;fontSize=18;strokeWidth=1;" edge="1" parent="1">
          <mxGeometry width="50" height="50" relative="1" as="geometry">
            <mxPoint x="670" y="290" as="sourcePoint" />
            <mxPoint x="670" y="60" as="targetPoint" />
          </mxGeometry>
        </mxCell>
        <mxCell id="07gyAidKK9KNY_pC1GZg-9" value="" style="endArrow=none;html=1;rounded=0;fontSize=18;strokeWidth=1;" edge="1" parent="1">
          <mxGeometry width="50" height="50" relative="1" as="geometry">
            <mxPoint x="670" y="290" as="sourcePoint" />
            <mxPoint x="980" y="290" as="targetPoint" />
          </mxGeometry>
        </mxCell>
        <mxCell id="07gyAidKK9KNY_pC1GZg-10" value="&lt;b style=&quot;font-family: 標楷體;&quot;&gt;是&lt;/b&gt;" style="text;html=1;align=center;verticalAlign=middle;whiteSpace=wrap;rounded=0;fontSize=19;" vertex="1" parent="1">
          <mxGeometry x="610" y="105" width="60" height="30" as="geometry" />
        </mxCell>
        <mxCell id="07gyAidKK9KNY_pC1GZg-12" value="&lt;b style=&quot;font-family: 標楷體;&quot;&gt;是&lt;/b&gt;" style="text;html=1;align=center;verticalAlign=middle;whiteSpace=wrap;rounded=0;fontSize=19;" vertex="1" parent="1">
          <mxGeometry x="870" y="290" width="60" height="30" as="geometry" />
        </mxCell>
        <mxCell id="07gyAidKK9KNY_pC1GZg-13" value="&lt;b style=&quot;font-family: 標楷體;&quot;&gt;否&lt;/b&gt;" style="text;html=1;align=center;verticalAlign=middle;whiteSpace=wrap;rounded=0;fontSize=19;" vertex="1" parent="1">
          <mxGeometry x="610" y="225" width="60" height="30" as="geometry" />
        </mxCell>
        <mxCell id="07gyAidKK9KNY_pC1GZg-14" value="&lt;b style=&quot;font-family: 標楷體;&quot;&gt;否&lt;/b&gt;" style="text;html=1;align=center;verticalAlign=middle;whiteSpace=wrap;rounded=0;fontSize=19;" vertex="1" parent="1">
          <mxGeometry x="710" y="290" width="60" height="30" as="geometry" />
        </mxCell>
      </root>
    </mxGraphModel>
  </diagram>
</mxfile>
